<svg id="Objects" xmlns="http://www.w3.org/2000/svg" xmlns:xlink="http://www.w3.org/1999/xlink" viewBox="0 0 743.22 594.49"><defs><style>.cls-1,.cls-4{fill:none;}.cls-2{clip-path:url(#clip-path);}.cls-3,.cls-7{fill:#21a79c;}.cls-4,.cls-5,.cls-7,.cls-9{stroke:#333331;stroke-linecap:round;stroke-linejoin:round;stroke-width:3px;}.cls-5,.cls-8{fill:#fff;}.cls-6{fill:#333331;}.cls-9{fill:#ffc13a;}</style><clipPath id="clip-path" transform="translate(-25.3 -180.01)"><rect class="cls-1" width="800" height="800"/></clipPath></defs><title>1664</title><g class="cls-2"><path class="cls-3" d="M473.08,532.42l-52.8,27.19a12.05,12.05,0,0,0-5.2,16.23l.68,1.31,4.3,8.36,29.4,57.09,4.3,8.36.67,1.31a12.06,12.06,0,0,0,16.24,5.2l52.8-27.18a12.07,12.07,0,0,0,5.2-16.24l-.68-1.3-4.3-8.37-29.4-57.09-4.3-8.36-.68-1.31A12,12,0,0,0,473.08,532.42Z" transform="translate(-25.3 -180.01)"/><rect class="cls-4" x="427.97" y="531.02" width="83.49" height="119.48" rx="12.05" transform="translate(-243.63 100.54) rotate(-27.24)"/><rect class="cls-5" x="427.97" y="553.95" width="83.49" height="73.62" transform="translate(-243.63 100.54) rotate(-27.24)"/><circle class="cls-5" cx="465.12" cy="453.53" r="4.97"/><circle class="cls-6" cx="441.94" cy="356.71" r="2.97"/><rect class="cls-6" x="430.3" y="543.92" width="31.75" height="7.35" rx="3.67" transform="translate(-226.48 84.97) rotate(-27.24)"/><rect class="cls-7" x="493.16" y="539.94" width="4.7" height="9.17" transform="translate(-219.6 107.22) rotate(-27.24)"/><rect class="cls-7" x="499.91" y="553.06" width="4.7" height="9.17" transform="translate(-224.85 111.76) rotate(-27.24)"/><rect class="cls-7" x="437.8" y="625.08" width="4.7" height="9.17" transform="translate(-264.71 91.32) rotate(-27.24)"/><path class="cls-7" d="M243.39,665.53,234.57,664a14.88,14.88,0,0,1-12.15-17.18l1-6a10,10,0,0,1,7.06-7.91l3.73-1.08a28.15,28.15,0,0,1,19.8,1.53l5.78,2.71a10,10,0,0,1,4.94,13L262,655.42A17.13,17.13,0,0,1,243.39,665.53Z" transform="translate(-25.3 -180.01)"/><line class="cls-4" x1="198.15" y1="460.81" x2="189.87" y2="459.39"/><path class="cls-7" d="M295.87,674.54l8.82,1.51a14.89,14.89,0,0,0,17.19-12.15l1-6a10,10,0,0,0-4-9.8l-3.16-2.27a28.17,28.17,0,0,0-19.18-5.15l-6.35.62a10,10,0,0,0-9,10.61l.46,6.9A17.14,17.14,0,0,0,295.87,674.54Z" transform="translate(-25.3 -180.01)"/><line class="cls-4" x1="297.61" y1="477.87" x2="305.89" y2="479.29"/><path class="cls-4" d="M265.27,642.66s10-6.64,16.74,2.88" transform="translate(-25.3 -180.01)"/><path class="cls-8" d="M284.35,643.7l.21.44c11.49,1.39,21.75,1.62,28.2.65a72.51,72.51,0,0,0-9-2.13c-2.31-.39-4.64-.69-6.94-.86l-6.16-.47C286.34,641,283.57,642.05,284.35,643.7Z" transform="translate(-25.3 -180.01)"/><path class="cls-8" d="M264.16,640.68l.38-.38c1.28-1.3-1-3.2-5.16-4.33h0l-6-1.62a75.1,75.1,0,0,0-16.65-2.52C242.69,634.94,252.66,638.16,264.16,640.68Z" transform="translate(-25.3 -180.01)"/><circle class="cls-5" cx="141.73" cy="342.71" r="50.96"/><path class="cls-5" d="M221.49,517.43h-18a36.81,36.81,0,1,0,0,10.58h18a5.29,5.29,0,0,0,0-10.58Z" transform="translate(-25.3 -180.01)"/><circle class="cls-7" cx="141.73" cy="342.71" r="29.2"/><path class="cls-8" d="M185.65,502.55a27.45,27.45,0,0,0-38.78,38.79,31,31,0,0,1,38.78-38.79Z" transform="translate(-25.3 -180.01)"/><path class="cls-5" d="M427.24,343.26H693.43a0,0,0,0,1,0,0V492.62a13.5,13.5,0,0,1-13.5,13.5H440.74a13.5,13.5,0,0,1-13.5-13.5V343.26a0,0,0,0,1,0,0Z" transform="translate(167.68 -354.81) rotate(21.34)"/><polygon class="cls-7" points="688.64 217.27 440.7 120.39 438.88 91.42 709.62 197.2 688.64 217.27"/><path class="cls-5" d="M471.36,310.32H733a14.5,14.5,0,0,1,14.5,14.5v0a0,0,0,0,1,0,0H456.86a0,0,0,0,1,0,0v0A14.5,14.5,0,0,1,471.36,310.32Z" transform="translate(131.56 -377.39) rotate(21.34)"/><polygon class="cls-5" points="449.68 113.84 449.15 105.49 692.52 200.58 686.48 206.37 449.68 113.84"/><polygon class="cls-5" points="449.68 113.84 449.15 105.49 692.52 200.58 686.48 206.37 449.68 113.84"/><rect class="cls-7" x="506.88" y="458.08" width="68.27" height="32.13" transform="translate(184.35 -344.39) rotate(21.34)"/><line class="cls-5" x1="481.72" y1="287.32" x2="502.52" y2="295.45"/><line class="cls-5" x1="524.51" y1="304.04" x2="545.31" y2="312.17"/><rect class="cls-7" x="449.29" y="398.54" width="13.39" height="13.39" transform="translate(153.44 -318.17) rotate(21.34)"/><rect class="cls-7" x="470.48" y="406.82" width="13.39" height="13.39" transform="translate(157.91 -325.31) rotate(21.34)"/><polygon class="cls-7" points="554.05 266.24 469.27 233.11 464.4 245.58 549.18 278.71 561.65 283.58 566.52 271.11 554.05 266.24"/><rect class="cls-7" x="597.66" y="456.51" width="13.39" height="13.39" transform="translate(184.71 -368.19) rotate(21.34)"/><rect class="cls-7" x="618.85" y="464.79" width="13.39" height="13.39" transform="translate(189.18 -375.33) rotate(21.34)"/><polygon class="cls-7" points="455.55 205.72 434.35 197.43 429.48 209.9 450.67 218.18 463.14 223.06 468.01 210.59 455.55 205.72"/><rect class="cls-7" x="499.15" y="395.98" width="13.39" height="13.39" transform="translate(155.93 -336.49) rotate(21.34)"/><rect class="cls-7" x="520.34" y="404.26" width="13.39" height="13.39" transform="translate(160.4 -343.63) rotate(21.34)"/><rect class="cls-7" x="541.54" y="412.55" width="13.39" height="13.39" transform="translate(164.87 -350.78) rotate(21.34)"/><rect class="cls-7" x="605.13" y="437.39" width="13.39" height="13.39" transform="translate(178.27 -372.22) rotate(21.34)"/><rect class="cls-7" x="626.32" y="445.67" width="13.39" height="13.39" transform="translate(182.73 -379.36) rotate(21.34)"/><polygon class="cls-7" points="625.11 271.97 620.24 284.44 612.77 303.55 625.24 308.43 632.71 289.31 637.58 276.84 625.11 271.97"/><rect class="cls-7" x="464.23" y="360.3" width="13.39" height="13.39" transform="translate(140.55 -326.23) rotate(21.34)"/><rect class="cls-7" x="485.42" y="368.58" width="13.39" height="13.39" transform="translate(145.02 -333.37) rotate(21.34)"/><rect class="cls-7" x="506.62" y="376.86" width="13.39" height="13.39" transform="translate(149.49 -340.52) rotate(21.34)"/><rect class="cls-7" x="527.81" y="385.15" width="13.39" height="13.39" transform="translate(153.95 -347.66) rotate(21.34)"/><rect class="cls-7" x="549.01" y="393.43" width="13.39" height="13.39" transform="translate(158.42 -354.81) rotate(21.34)"/><rect class="cls-7" x="570.21" y="401.71" width="13.39" height="13.39" transform="translate(162.89 -361.95) rotate(21.34)"/><polygon class="cls-7" points="568.99 228.01 561.52 247.12 552.79 243.71 540.33 238.84 535.46 251.31 547.92 256.18 556.65 259.59 569.12 264.46 573.99 252 581.46 232.88 568.99 228.01"/><rect class="cls-7" x="612.6" y="418.27" width="13.39" height="13.39" transform="translate(171.82 -376.25) rotate(21.34)"/><rect class="cls-7" x="633.79" y="426.55" width="13.39" height="13.39" transform="translate(176.29 -383.39) rotate(21.34)"/><rect class="cls-7" x="654.99" y="434.84" width="13.39" height="13.39" transform="translate(180.76 -390.54) rotate(21.34)"/><polygon class="cls-7" points="470.48 167.48 449.29 159.2 444.42 171.67 465.61 179.95 478.08 184.82 482.95 172.35 470.48 167.48"/><rect class="cls-7" x="514.09" y="357.75" width="13.39" height="13.39" transform="translate(143.04 -344.55) rotate(21.34)"/><rect class="cls-7" x="535.28" y="366.03" width="13.39" height="13.39" transform="translate(147.51 -351.69) rotate(21.34)"/><rect class="cls-7" x="556.48" y="374.31" width="13.39" height="13.39" transform="translate(151.97 -358.84) rotate(21.34)"/><rect class="cls-7" x="577.68" y="382.59" width="13.39" height="13.39" transform="translate(156.44 -365.98) rotate(21.34)"/><rect class="cls-7" x="598.87" y="390.87" width="13.39" height="13.39" transform="translate(160.91 -373.13) rotate(21.34)"/><rect class="cls-7" x="620.07" y="399.16" width="13.39" height="13.39" transform="translate(165.38 -380.28) rotate(21.34)"/><rect class="cls-7" x="641.26" y="407.44" width="13.39" height="13.39" transform="translate(169.84 -387.42) rotate(21.34)"/><rect class="cls-7" x="662.46" y="415.72" width="13.39" height="13.39" transform="translate(174.31 -394.57) rotate(21.34)"/><rect class="cls-7" x="479.17" y="322.07" width="13.39" height="13.39" transform="translate(127.66 -334.28) rotate(21.34)"/><rect class="cls-7" x="500.36" y="330.35" width="13.39" height="13.39" transform="translate(132.13 -341.43) rotate(21.34)"/><rect class="cls-7" x="521.56" y="338.63" width="13.39" height="13.39" transform="translate(136.59 -348.58) rotate(21.34)"/><rect class="cls-7" x="542.75" y="346.91" width="13.39" height="13.39" transform="translate(141.06 -355.72) rotate(21.34)"/><rect class="cls-7" x="563.95" y="355.19" width="13.39" height="13.39" transform="translate(145.53 -362.87) rotate(21.34)"/><rect class="cls-7" x="585.15" y="363.47" width="13.39" height="13.39" transform="translate(150 -370.01) rotate(21.34)"/><rect class="cls-7" x="606.34" y="371.76" width="13.39" height="13.39" transform="translate(154.46 -377.16) rotate(21.34)"/><rect class="cls-7" x="627.54" y="380.04" width="13.39" height="13.39" transform="translate(158.93 -384.3) rotate(21.34)"/><rect class="cls-7" x="648.73" y="388.32" width="13.39" height="13.39" transform="translate(163.4 -391.45) rotate(21.34)"/><rect class="cls-7" x="669.93" y="396.6" width="13.39" height="13.39" transform="translate(167.87 -398.6) rotate(21.34)"/><path class="cls-3" d="M247.21,313.3l-5.07,3.47,86.27-28.93a4.29,4.29,0,0,0-3.78-.5Z" transform="translate(-25.3 -180.01)"/><rect class="cls-4" x="246.46" y="299.73" width="73.35" height="12.26" transform="translate(-107.85 -74.13) rotate(-18.54)"/><path class="cls-7" d="M317.52,285.74h8.56a6.13,6.13,0,0,1,6.13,6.13v0a6.13,6.13,0,0,1-6.13,6.13h-8.56a0,0,0,0,1,0,0V285.74A0,0,0,0,1,317.52,285.74Z" transform="translate(-101.24 -61.58) rotate(-18.54)"/><polygon class="cls-4" points="202.56 144.38 225.01 143.32 221.11 131.7 202.56 144.38"/><line class="cls-4" x1="213.15" y1="137.14" x2="215.38" y2="143.78"/><rect class="cls-5" x="191.37" y="336.89" width="174.47" height="97.15" transform="translate(-133.4 -71.44) rotate(-18.54)"/><rect class="cls-3" x="206.59" y="349.02" width="159.18" height="81.06" transform="translate(-134.3 -68.82) rotate(-18.54)"/><line class="cls-4" x1="182.84" y1="177.85" x2="213.72" y2="269.96"/><line class="cls-4" x1="306.45" y1="136.4" x2="337.33" y2="228.51"/><line class="cls-4" x1="186.07" y1="187.51" x2="309.68" y2="146.06"/><line class="cls-4" x1="210.49" y1="260.31" x2="334.09" y2="218.86"/><line class="cls-4" x1="225.25" y1="238.5" x2="205.41" y2="245.15"/><line class="cls-4" x1="220.5" y1="224.33" x2="200.66" y2="230.99"/><line class="cls-4" x1="215.75" y1="210.17" x2="195.91" y2="216.82"/><line class="cls-4" x1="211" y1="196" x2="191.15" y2="202.66"/><circle class="cls-4" cx="184.72" cy="228.45" r="7.47"/><rect class="cls-7" x="361.08" y="346.5" width="9.02" height="19.6" transform="translate(-119.61 -45.3) rotate(-18.54)"/><rect class="cls-5" x="270.42" y="472.85" width="101.02" height="138.23" transform="translate(104.18 -238.1) rotate(12.94)"/><rect class="cls-5" x="300.41" y="493.42" width="21.46" height="21.46" transform="translate(95.46 -236.87) rotate(12.94)"/><line class="cls-4" x1="269.21" y1="349.47" x2="325.04" y2="362.29"/><line class="cls-4" x1="266.32" y1="362.05" x2="322.15" y2="374.88"/><line class="cls-4" x1="263.43" y1="374.64" x2="319.26" y2="387.47"/><line class="cls-4" x1="260.54" y1="387.23" x2="316.37" y2="400.05"/><line class="cls-4" x1="257.65" y1="399.81" x2="313.48" y2="412.64"/><rect class="cls-5" x="623.07" y="608.83" width="118.07" height="142.71" transform="translate(355.78 -414.87) rotate(26.87)"/><rect class="cls-5" x="615.34" y="597.74" width="118.07" height="157.05" transform="translate(353.18 -411.8) rotate(26.87)"/><rect class="cls-3" x="592.36" y="622.39" width="153.32" height="102.33" transform="translate(-259.5 785.89) rotate(-63.13)"/><rect class="cls-5" x="670.92" y="672.28" width="60.88" height="27.09" transform="translate(360.41 -422.96) rotate(26.87)"/><polygon class="cls-5" points="718.05 466.92 711.24 458.36 700.32 457.93 711.63 435.6 729.37 444.58 718.05 466.92"/><rect class="cls-7" x="620.84" y="574.7" width="16.12" height="157.05" transform="translate(337.85 -393.73) rotate(26.87)"/><rect class="cls-7" x="574.62" y="565.62" width="14.08" height="78.62" transform="translate(207.83 -338.49) rotate(19.34)"/><path class="cls-7" d="M597.33,552.28h0a4.28,4.28,0,0,1,4.28,4.28v11.73a0,0,0,0,1,0,0h-8.55a0,0,0,0,1,0,0V556.55A4.28,4.28,0,0,1,597.33,552.28Z" transform="translate(193.93 -346.2) rotate(19.34)"/><path class="cls-7" d="M562,639.69l1,11a2.76,2.76,0,0,0,4.75,1.67l7.59-8Z" transform="translate(-25.3 -180.01)"/><rect class="cls-5" x="564.71" y="623.82" width="14.08" height="18.73" transform="translate(216.62 -333.61) rotate(19.34)"/><polyline class="cls-4" points="560.29 392.47 580.22 399.46 568.8 432"/><rect class="cls-5" x="38.11" y="593.96" width="85.1" height="102.85" rx="9.5" transform="translate(-220.05 -123.84) rotate(-17.93)"/><rect class="cls-5" x="39.42" y="607.87" width="63.36" height="16.6" transform="translate(-211.53 -128.2) rotate(-17.93)"/><rect class="cls-3" x="47.49" y="612.75" width="53.89" height="8.84" transform="translate(-211.67 -127.13) rotate(-17.93)"/><rect class="cls-7" x="46.84" y="639.99" width="15.32" height="5.8" transform="translate(-220.56 -132.02) rotate(-17.93)"/><rect class="cls-7" x="69.69" y="632.59" width="15.32" height="5.8" transform="translate(-217.17 -125.34) rotate(-17.93)"/><rect class="cls-7" x="92.54" y="625.2" width="15.32" height="5.8" transform="translate(-213.79 -118.66) rotate(-17.93)"/><rect class="cls-5" x="52.58" y="656.68" width="15.32" height="7.94" transform="translate(-225.75 -129.38) rotate(-17.93)"/><rect class="cls-5" x="75.44" y="649.29" width="15.32" height="7.94" transform="translate(-222.36 -122.71) rotate(-17.93)"/><rect class="cls-7" x="98.29" y="641.89" width="15.32" height="7.94" transform="translate(-218.98 -116.03) rotate(-17.93)"/><rect class="cls-5" x="56.97" y="670.24" width="15.32" height="7.94" transform="translate(-229.71 -127.37) rotate(-17.93)"/><rect class="cls-5" x="79.82" y="662.84" width="15.32" height="7.94" transform="translate(-226.32 -120.7) rotate(-17.93)"/><rect class="cls-7" x="102.68" y="655.45" width="15.32" height="7.94" transform="translate(-222.94 -114.02) rotate(-17.93)"/><rect class="cls-5" x="61.36" y="683.8" width="15.32" height="7.94" transform="translate(-233.67 -125.37) rotate(-17.93)"/><rect class="cls-5" x="84.21" y="676.4" width="15.32" height="7.94" transform="translate(-230.28 -118.69) rotate(-17.93)"/><rect class="cls-7" x="107.06" y="669.01" width="15.32" height="7.94" transform="translate(-226.9 -112.01) rotate(-17.93)"/><polygon class="cls-5" points="87.98 205.3 63 253.92 98.4 272.11 105.19 258.9 118.41 265.69 136.6 230.28 87.98 205.3"/><polygon class="cls-5" points="98.4 272.11 118.41 265.69 105.19 258.9 98.4 272.11"/><line class="cls-5" x1="83.25" y1="214.5" x2="95.13" y2="220.6"/><line class="cls-5" x1="104.8" y1="225.57" x2="131.87" y2="239.48"/><circle class="cls-5" cx="75.77" cy="143.78" r="34.43"/><path class="cls-7" d="M139.73,304.6l58.75-29a9.77,9.77,0,0,1,8.54-.05h0A9.77,9.77,0,0,1,211.85,288h0a9.75,9.75,0,0,1-6.34,5.72l-62.94,18.17Z" transform="translate(-25.3 -180.01)"/><path class="cls-5" d="M133.18,311.34a34.78,34.78,0,0,1,1.73,6.1l8.52-3.31-4.56-11.76-8.52,3.3A35.29,35.29,0,0,1,133.18,311.34Z" transform="translate(-25.3 -180.01)"/><circle class="cls-5" cx="75.77" cy="143.78" r="25.47"/><path class="cls-3" d="M113.24,337.57A23.5,23.5,0,0,0,124.08,329a23.59,23.59,0,0,0-42.38-18.7,23.6,23.6,0,0,0,31.54,27.25Z" transform="translate(-25.3 -180.01)"/><line class="cls-9" x1="180.2" y1="113.73" x2="173.17" y2="95.59"/><path class="cls-7" d="M126.91,218.09h32.3a9,9,0,0,1,9,9v11.29a0,0,0,0,1,0,0h-50.3a0,0,0,0,1,0,0V227.09A9,9,0,0,1,126.91,218.09Z" transform="translate(36.54 -208.6) rotate(14.53)"/><path class="cls-7" d="M160.87,197.51a10.18,10.18,0,1,0-18.2-8.37c-.07.29-.13.59-.18.91a2,2,0,0,0,0,.24c-1.18,8,4,23.11-2.15,26.75l5.16,1.34.14,0,5.17,1.33C147.47,214.14,157,204.83,160.87,197.51Z" transform="translate(-25.3 -180.01)"/><rect class="cls-5" x="117.56" y="237.97" width="44.5" height="5.59" transform="translate(39.58 -207.39) rotate(14.53)"/><line class="cls-4" x1="92.42" y1="45.73" x2="109.36" y2="50.12"/></g></svg>